<!--?xml version="1.0" standalone="no"?-->
              <svg id="sw-js-blob-svg" viewBox="0 0 100 100" xmlns="http://www.w3.org/2000/svg" version="1.1">
                    <defs> 
                        <linearGradient id="sw-gradient" x1="0" x2="1" y1="1" y2="0">
                            <stop id="stop1" stop-color="rgba(32.881, 210.878, 247.174, 1)" offset="0%"></stop>
                            <stop id="stop2" stop-color="rgba(37, 199, 155, 1)" offset="100%"></stop>
                        </linearGradient>
                    </defs>
                <path fill="url(#sw-gradient)" d="M26.9,-30.5C34.8,-25.4,41.2,-16.9,41.8,-8.2C42.4,0.5,37.2,9.5,31.5,17.2C25.9,24.9,19.8,31.4,12.2,34.8C4.5,38.2,-4.8,38.5,-13.7,36C-22.5,33.5,-30.9,28.1,-36.3,20.3C-41.6,12.4,-43.9,2.1,-42.6,-8C-41.4,-18.1,-36.7,-28.1,-29,-33.2C-21.3,-38.3,-10.6,-38.7,-0.6,-38C9.5,-37.3,18.9,-35.6,26.9,-30.5Z" width="100%" height="100%" transform="translate(50 50)" stroke-width="0" style="transition: all 0.3s ease 0s;" stroke="url(#sw-gradient)"></path>
              </svg>